<?xml version="1.0" standalone="no"?>
<!DOCTYPE svg PUBLIC "-//W3C//DTD SVG 20010904//EN"
 "http://www.w3.org/TR/2001/REC-SVG-20010904/DTD/svg10.dtd">
<svg version="1.0" xmlns="http://www.w3.org/2000/svg"
 width="860.000000pt" height="794.000000pt" viewBox="0 0 860.000000 794.000000"
 preserveAspectRatio="xMidYMid meet">

<g transform="translate(0.000000,794.000000) scale(0.100000,-0.100000)"
fill="#000000" stroke="none">
<path d="M4195 7509 c-665 -63 -1329 -335 -1859 -762 -132 -106 -364 -334
-481 -472 -415 -492 -700 -1123 -784 -1740 -6 -44 -13 -92 -16 -107 l-4 -26
57 31 c31 18 91 46 132 64 506 215 954 106 1310 -318 l47 -57 65 87 65 87 -27
16 c-26 15 -28 19 -19 56 30 137 155 398 257 541 37 52 105 135 152 184 76 81
82 90 65 100 -44 24 -109 96 -138 152 -29 55 -32 68 -32 155 0 104 16 155 72
225 86 108 247 159 380 120 138 -41 253 -186 253 -318 0 -15 3 -27 6 -27 4 0
49 13 100 30 394 126 859 88 1237 -101 90 -46 98 -52 93 -74 -6 -23 -4 -23 78
-30 150 -13 404 29 557 91 317 129 592 343 929 724 46 52 138 150 204 218
l121 124 -75 70 c-270 252 -525 432 -831 588 -401 204 -784 317 -1229 365
-147 16 -534 18 -685 4z"/>
<path d="M7360 5962 c-168 -288 -398 -697 -962 -1717 -61 -110 -117 -207 -124
-215 -7 -8 -40 -64 -74 -125 -189 -333 -411 -594 -675 -793 -55 -41 -100 -77
-100 -80 0 -10 105 -45 205 -69 79 -18 144 -26 265 -29 175 -6 211 -13 244
-48 33 -35 131 -271 131 -314 -1 -153 -280 -383 -757 -625 -687 -348 -1407
-536 -1630 -426 -53 26 -68 51 -139 225 -48 120 -45 143 39 233 146 155 243
297 302 444 19 45 33 83 31 84 -1 1 -51 -4 -112 -12 -428 -54 -818 -4 -1116
146 -100 50 -149 83 -241 162 l-69 60 7 -33 c13 -61 8 -243 -10 -315 -43 -175
-146 -315 -281 -382 -65 -31 -84 -36 -147 -37 -166 0 -298 96 -344 253 -20 69
-13 168 16 234 47 108 166 194 284 205 l59 5 -6 31 c-11 57 -39 69 -141 63
-49 -3 -157 -15 -240 -27 -82 -11 -235 -23 -338 -27 -130 -4 -187 -9 -184 -17
56 -144 85 -209 157 -351 251 -497 586 -894 1038 -1232 501 -375 1075 -600
1727 -675 143 -16 569 -16 710 0 842 99 1573 457 2150 1053 759 784 1105 1860
945 2938 -51 342 -152 670 -304 986 -68 141 -196 365 -255 447 l-27 37 -34
-57z"/>
<path d="M1580 4151 c-140 -32 -285 -97 -410 -183 -130 -89 -130 -89 -130
-145 0 -108 65 -552 84 -570 3 -3 85 -5 183 -5 182 1 313 11 508 39 229 33
398 19 517 -44 29 -15 56 -29 60 -31 4 -2 2 12 -3 30 -18 59 -21 247 -6 335
l13 82 -75 113 c-85 130 -216 265 -304 317 -129 76 -280 97 -437 62z"/>
</g>
</svg>
